<?xml version="1.0" standalone="no"?>
<!DOCTYPE svg PUBLIC "-//W3C//DTD SVG 20010904//EN"
 "http://www.w3.org/TR/2001/REC-SVG-20010904/DTD/svg10.dtd">
<svg version="1.0" xmlns="http://www.w3.org/2000/svg"
 width="608.000000pt" height="608.000000pt" viewBox="0 0 608.000000 608.000000"
 preserveAspectRatio="xMidYMid meet">
<metadata>
Created by potrace 1.11, written by Peter Selinger 2001-2013
</metadata>
<g transform="translate(0.000000,608.000000) scale(0.100000,-0.100000)"
fill="#000000" stroke="none">
<path d="M0 3040 l0 -2080 3040 0 3040 0 0 2080 0 2080 -3040 0 -3040 0 0
-2080z m1769 2055 c-111 -15 -327 -57 -615 -120 -334 -73 -598 -115 -729 -115
-56 0 -61 -2 -102 -42 l-43 -42 0 -128 0 -128 -68 0 c-92 0 -148 -28 -179 -90
l-23 -44 0 362 0 362 928 -1 c811 -1 915 -3 831 -14z m1806 -5 c-141 -26 -271
-70 -407 -137 l-118 -58 -117 58 c-137 67 -267 111 -408 137 l-100 18 625 0
625 0 -100 -18z m2495 -322 l0 -343 -25 31 c-32 41 -91 64 -165 64 l-60 0 0
128 0 128 -43 42 c-41 40 -46 42 -102 42 -133 0 -399 42 -731 115 -270 60
-544 112 -641 123 -51 6 243 10 845 11 l922 1 0 -342z m-3645 162 c149 -24
276 -65 423 -136 l112 -54 0 -798 0 -798 30 -29 30 -29 0 -733 0 -733 -67 46
c-148 101 -333 175 -526 209 -80 14 -136 17 -305 12 -231 -5 -343 -22 -697
-102 -405 -92 -465 -105 -552 -121 -132 -23 -311 -44 -375 -44 l-58 0 0 1538
0 1539 123 6 c142 8 312 33 517 77 717 153 805 168 1055 169 126 1 201 -4 290
-19z m1807 4 c111 -14 386 -68 788 -154 205 -44 375 -69 518 -77 l122 -6 0
-1539 0 -1538 -57 0 c-153 0 -387 40 -813 139 -457 105 -619 131 -853 132
-311 2 -564 -70 -790 -225 l-67 -46 0 728 0 728 30 29 30 29 0 801 0 802 58
30 c155 82 305 134 472 163 137 24 394 26 562 4z m-4132 -3721 l44 -23 1267 0
1268 0 22 -32 c53 -78 126 -139 204 -171 37 -15 -65 -16 -1427 -16 l-1468 -1
0 177 0 177 23 -44 c16 -33 34 -51 67 -67z m5970 -88 l0 -155 -1452 0 -1453 0
62 30 c71 33 150 102 179 155 l19 35 1263 0 c1395 0 1306 -4 1355 62 11 15 22
28 24 28 2 0 3 -70 3 -155z"/>
</g>
</svg>
